<svg xmlns="http://www.w3.org/2000/svg" viewBox="0 0 390.02 800" preserveAspectRatio="none">
  <defs>
    <mask id="wavyMask">
      <rect x="0" y="0" width="390.02" height="1000" fill="white"/>
      <path fill="black" d="M390.02,0H0v14.61c1.28,0,2.57-.48,3.55-1.46L11.64,5.06c1.96-1.96,5.14-1.95,7.09.02l7.9,8c1.96,1.98,5.16,1.98,7.12,0l7.88-7.98c1.96-1.98,5.16-1.98,7.12,0l7.88,7.98c1.96,1.98,5.16,1.98,7.12,0l7.88-7.98c1.96-1.98,5.16-1.98,7.12,0l7.88,7.98c1.96,1.98,5.16,1.98,7.12,0l7.88-7.98c1.96-1.98,5.16-1.98,7.12,0l7.88,7.98c1.96,1.98,5.16,1.98,7.12,0l7.88-7.98c1.96-1.98,5.16-1.98,7.12,0l7.88,7.98c1.96,1.98,5.16,1.98,7.12,0l7.88-7.98c1.96-1.98,5.16-1.98,7.12,0l7.88,7.98c1.96,1.98,5.16,1.98,7.12,0l7.88-7.98c1.96-1.98,5.16-1.98,7.12,0l7.88,7.98c1.96,1.98,5.16,1.98,7.12,0l7.88-7.98c1.96-1.98,5.16-1.98,7.12,0l7.88,7.98c1.96,1.98,5.16,1.98,7.12,0l7.88-7.98c1.96-1.98,5.16-1.98,7.12,0l7.88,7.98c1.96,1.98,5.16,1.98,7.12,0l7.88-7.98c1.96-1.98,5.16-1.98,7.12,0l7.88,7.98c1.96,1.98,5.16,1.98,7.12,0l7.88-7.98c1.96-1.98,5.16-1.98,7.12,0l7.88,7.98c1.96,1.98,5.16,1.98,7.12,0l7.88-7.98c1.96-1.98,5.16-1.98,7.12,0l7.9,8c.98.99,2.26,1.48,3.55,1.49V0Z"/>
    </mask>
  </defs>
  <rect x="0" y="0" width="390.02" height="1000" fill="white" mask="url(#wavyMask)"/>
</svg>
