<svg width="28" height="29" viewBox="0 0 28 29" fill="none" xmlns="http://www.w3.org/2000/svg">
  <path d="M14 0.464844C10.1978 0.464844 9.72107 0.480974 8.2278 0.549079C6.73767 0.617058 5.71997 0.853758 4.82944 1.19978C3.90882 1.55756 3.12807 2.0363 2.34978 2.81458C1.57145 3.59287 1.09272 4.3737 0.734982 5.29433C0.388873 6.18481 0.152256 7.20251 0.0841932 8.69265C0.0160884 10.1859 0 10.6627 0 14.4649C0 18.267 0.0160884 18.7438 0.0841932 20.237C0.152256 21.7272 0.388873 22.7449 0.734982 23.6354C1.09276 24.556 1.5715 25.3367 2.34978 26.1151C3.12811 26.8934 3.90882 27.3721 4.82944 27.7299C5.71997 28.0759 6.73767 28.3126 8.2278 28.3806C9.72107 28.4487 10.1978 28.4648 14 28.4648C17.8022 28.4648 18.2789 28.4487 19.7722 28.3806C21.2623 28.3126 22.28 28.0759 23.1705 27.7299C24.0911 27.3721 24.8719 26.8934 25.6503 26.1151C26.4285 25.3367 26.9073 24.556 27.2651 23.6354C27.6111 22.7449 27.8478 21.7272 27.9158 20.237C27.9839 18.7438 28 18.267 28 14.4649C28 10.6627 27.9839 10.1859 27.9158 8.69265C27.8478 7.20251 27.6111 6.18481 27.2651 5.29433C26.9073 4.3737 26.4285 3.59287 25.6503 2.81458C24.8719 2.0363 24.0911 1.55756 23.1705 1.19978C22.28 0.853758 21.2623 0.617058 19.7722 0.549079C18.2789 0.480974 17.8022 0.464844 14 0.464844ZM14 2.98735C17.7381 2.98735 18.1809 3.00164 19.6572 3.069C21.0222 3.13123 21.7635 3.3593 22.2568 3.55103C22.9103 3.80502 23.3767 4.10837 23.8665 4.59827C24.3565 5.08818 24.6598 5.55457 24.9138 6.20803C25.1055 6.70135 25.3336 7.44267 25.3958 8.80764C25.4632 10.2839 25.4775 10.7267 25.4775 14.4648C25.4775 18.203 25.4632 18.6458 25.3958 20.122C25.3336 21.4871 25.1055 22.2283 24.9138 22.7216C24.6598 23.3752 24.3565 23.8415 23.8665 24.3314C23.3767 24.8213 22.9103 25.1247 22.2568 25.3787C21.7635 25.5704 21.0222 25.7985 19.6572 25.8607C18.1812 25.928 17.7384 25.9423 14 25.9423C10.2616 25.9423 9.81889 25.928 8.3428 25.8606C6.97778 25.7985 6.23651 25.5704 5.74323 25.3787C5.08969 25.1247 4.62333 24.8213 4.13347 24.3314C3.64357 23.8415 3.34018 23.3751 3.08618 22.7217C2.89445 22.2283 2.66642 21.487 2.60415 20.122C2.5368 18.6458 2.5225 18.203 2.5225 14.4648C2.5225 10.7267 2.5368 10.2839 2.60415 8.80764C2.66642 7.44263 2.89445 6.70135 3.08618 6.20807C3.34018 5.55453 3.64357 5.08818 4.13343 4.59831C4.62333 4.10837 5.08973 3.80502 5.74319 3.55103C6.23651 3.3593 6.97783 3.13123 8.3428 3.069C9.81906 3.00164 10.2619 2.98735 14 2.98735" fill="#A1A1A1"/>
    <path d="M14.0017 19.1324C11.4243 19.1324 9.335 17.0431 9.335 14.4658C9.335 11.8884 11.4243 9.79908 14.0017 9.79908C16.579 9.79908 18.6684 11.8884 18.6684 14.4658C18.6684 17.0431 16.579 19.1324 14.0017 19.1324ZM14.0017 7.27658C10.0312 7.27658 6.8125 10.4953 6.8125 14.4658C6.8125 18.4363 10.0312 21.6549 14.0017 21.6549C17.9722 21.6549 21.1909 18.4363 21.1909 14.4658C21.1909 10.4953 17.9722 7.27658 14.0017 7.27658ZM23.1549 6.99253C23.1549 7.92041 22.4028 8.67252 21.4749 8.67252C20.5471 8.67252 19.7949 7.92041 19.7949 6.99253C19.7949 6.0647 20.5471 5.3125 21.4749 5.3125C22.4028 5.3125 23.1549 6.0647 23.1549 6.99253Z" fill="#A1A1A1"/>
</svg>