<svg width="28" height="29" viewBox="0 0 28 29" fill="none" xmlns="http://www.w3.org/2000/svg">
  <path d="M25.1469 7.436V12.0135C24.3461 11.9358 23.3083 11.755 22.1567 11.3319C20.6544 10.7805 19.5371 10.0285 18.8049 9.44453V18.6972L18.7869 18.6683C18.7995 18.8509 18.8049 19.0389 18.8049 19.2269C18.8049 23.8225 15.0663 27.563 10.4689 27.563C5.87148 27.563 2.13281 23.8225 2.13281 19.2269C2.13281 14.6313 5.87148 10.889 10.4689 10.889C10.919 10.889 11.3601 10.9252 11.7922 10.9939V15.5063C11.3764 15.3581 10.9335 15.2785 10.4689 15.2785C8.29221 15.2785 6.5205 17.0484 6.5205 19.2269C6.5205 21.4054 8.29221 23.1753 10.4689 23.1753C12.6456 23.1753 14.4173 21.4036 14.4173 19.2269C14.4173 19.1455 14.4154 19.0642 14.41 18.9828V1H18.9857C19.002 1.38688 19.0183 1.77737 19.0345 2.16606C19.0653 2.92898 19.3365 3.66117 19.8101 4.26138C20.3669 4.96645 21.1859 5.78541 22.3375 6.43986C23.415 7.05092 24.4292 7.31306 25.1469 7.436Z" fill="#A1A1A1"/>
</svg>